<?xml version="1.0" standalone="no"?><!DOCTYPE svg PUBLIC "-//W3C//DTD SVG 1.1//EN" "http://www.w3.org/Graphics/SVG/1.1/DTD/svg11.dtd"><svg t="1498562471292" class="icon" style="" viewBox="0 0 1024 1024" version="1.1" xmlns="http://www.w3.org/2000/svg" p-id="1000" xmlns:xlink="http://www.w3.org/1999/xlink" width="64" height="64"><defs><style type="text/css"></style></defs><path d="M887.466667 608.711111l-335.644444 341.333333C540.444444 961.422222 523.377778 967.111111 512 967.111111c-11.377778 0-28.444444-5.688889-39.822222-17.066667l-335.644444-341.333333C119.466667 591.644444 113.777778 568.888889 125.155556 546.133333 130.844444 523.377778 153.6 512 170.666667 512l170.666667 0L341.333333 170.666667c0-62.577778 51.2-113.777778 113.777778-113.777778l113.777778 0c62.577778 0 113.777778 51.2 113.777778 113.777778l0 341.333333 170.666667 0c22.755556 0 39.822222 11.377778 51.2 34.133333C910.222222 568.888889 904.533333 591.644444 887.466667 608.711111z" fill="#ffffff" p-id="1001"></path></svg>